<?xml version="1.0" encoding="UTF-8"?>
<svg id="Layer_1" data-name="Layer 1" xmlns="http://www.w3.org/2000/svg" width="112.8" height="144.12" viewBox="0 0 112.8 144.12">
  <defs>
    <style>
      .cls-1 {
        fill: #284a36;
      }

      .cls-1, .cls-2, .cls-3 {
        stroke-width: 0px;
      }

      .cls-2 {
        fill: #eac06a;
      }

      .cls-3 {
        fill: #ab1738;
      }
    </style>
  </defs>
  <g>
    <path class="cls-1" d="M.5,41.12v-6.02h4.14l.13-.25V8.2l-.13-.25H.5V1.93h19.81c9.97,0,13.29,3.82,13.29,9.47,0,4.89-1.94,7.77-6.21,9.22v.44c5.27,1.07,7.52,4.83,7.52,9.28,0,6.52-4.14,10.78-13.92,10.78H.49h.01ZM15.61,18.86c6.52,0,9.15-1.57,9.15-6.02,0-3.32-2.07-4.95-7.27-4.95h-4.39v10.97h2.51ZM18.62,35.16c5.39,0,7.4-2.07,7.4-5.52s-1.82-5.46-9.03-5.46h-3.89v10.97h5.52Z"/>
    <path class="cls-1" d="M21,41.62H0v-7.02h4.26V8.45H0V1.43h20.31c9.28,0,13.79,3.26,13.79,9.97,0,4.77-1.82,7.78-5.71,9.38,4.48,1.24,7.03,4.68,7.03,9.56,0,5.15-2.5,11.28-14.42,11.28h0ZM1,40.62h20c8.78,0,13.42-3.56,13.42-10.28,0-2.74-.93-7.54-7.12-8.79l-.4-.08v-1.21l.34-.11c4.06-1.37,5.87-4.07,5.87-8.74,0-6.12-4.06-8.97-12.79-8.97H1.01v5.02h3.95l.32.63v26.88l-.32.63H1.01v5.02h-.01ZM18.62,35.66h-6.02v-11.97h4.39c6.86,0,9.53,1.67,9.53,5.96,0,4.05-2.58,6.02-7.9,6.02h0ZM13.6,34.66h5.02c6.18,0,6.9-2.86,6.9-5.02,0-3.14-1.4-4.96-8.53-4.96h-3.39v9.97h0ZM15.61,19.36h-3.01V7.39h4.89c5.3,0,7.77,1.73,7.77,5.45,0,5.41-3.86,6.52-9.65,6.52h0ZM13.6,18.36h2.01c6.39,0,8.65-1.44,8.65-5.52,0-2.2-.8-4.45-6.77-4.45h-3.89v9.97h0Z"/>
  </g>
  <g>
    <path class="cls-1" d="M60.88,41.12v-6.02h3.89l.19-.25-1.63-5.39h-13.54l-1.63,5.39.19.25h3.95v6.02h-15.49v-6.02h3.89l9.72-29.97v-2.38l12.35-1.94,11.04,34.3h3.89v6.02h-16.82ZM56.99,8.58h-.75l-4.7,15.11h10.03l-4.58-15.11Z"/>
    <path class="cls-1" d="M78.18,41.62h-17.8v-7.02h3.98l-1.4-4.64h-12.8l-1.4,4.64h4.04v7.02h-16.49v-7.02h4.02l9.58-29.55v-2.73L63.11.24l11.05,34.36h4.02v7.02ZM61.38,40.62h15.8v-5.02h-3.75L62.41,1.36l-11.51,1.81-.02,2.11-9.83,30.32h-3.75v5.02h14.49v-5.02h-3.7l-.49-.65,1.81-5.99h14.29l1.81,5.99-.49.65h-3.64v5.02h0ZM62.24,24.19h-11.38l5.01-16.11h1.49l4.88,16.11ZM52.21,23.19h8.68l-4.29-14.11-4.39,14.11Z"/>
  </g>
  <g>
    <path class="cls-1" d="M105.08,14.47l-1.44-5.64c-1.76-.88-4.39-1.5-7.02-1.5-5.52,0-7.9,1.44-7.9,4.58s1.88,4.58,9.41,5.83c10.6,1.69,14.17,4.77,14.17,11.72,0,8.15-5.46,12.54-16.55,12.54-5.14,0-10.66-.88-14.42-2.13l-.88-11.6h6.33l1.69,6.46c2.19.56,4.64,1,7.15,1,5.64,0,7.96-1.63,7.96-5.33,0-3.26-1.82-4.64-9.47-5.96-10.03-1.69-14.11-4.64-14.11-11.72,0-8.28,6.58-11.66,15.93-11.66,3.45,0,6.02.31,10.03,1.32l5.08-1.69v13.79h-5.96Z"/>
    <path class="cls-1" d="M95.74,42.5c-5,0-10.59-.83-14.58-2.16l-.32-.1-.94-12.47h7.26l1.72,6.55c2.47.62,4.67.92,6.74.92,5.3,0,7.46-1.4,7.46-4.83,0-2.75-1.26-4.12-9.05-5.46-10.59-1.79-14.52-5.1-14.52-12.22,0-7.84,5.83-12.16,16.43-12.16,3.52,0,6.16.34,10.01,1.3l5.6-1.87v14.99h-6.85l-1.48-5.79c-1.78-.84-4.28-1.35-6.6-1.35-6.52,0-7.4,2.06-7.4,4.08,0,2.66,1.3,4.06,8.99,5.34,10.77,1.72,14.59,4.92,14.59,12.22,0,5.95-2.96,13.04-17.05,13.04v-.03ZM81.79,39.5c3.87,1.24,9.18,2,13.95,2,10.65,0,16.05-4.05,16.05-12.04,0-6.75-3.47-9.59-13.75-11.23-7.53-1.25-9.83-2.73-9.83-6.32,0-4.55,4.79-5.08,8.4-5.08,2.59,0,5.29.58,7.25,1.56l.2.1,1.4,5.49h5.07V1.38l-4.56,1.52-.14-.04c-3.89-.97-6.39-1.3-9.91-1.3-7.04,0-15.43,1.94-15.43,11.16,0,6.59,3.58,9.53,13.69,11.23,7.67,1.32,9.88,2.77,9.88,6.45,0,4.03-2.61,5.83-8.46,5.83-2.23,0-4.61-.33-7.27-1.02l-.28-.07-1.67-6.37h-5.41l.81,10.73h.01Z"/>
  </g>
  <path class="cls-1" d="M18.02,70.08l-3.13-11.74h-.3l-3.26,11.74h-4.8l-4.03-14.65H.77v-2.63h7.3v2.63h-1.73l-.05.08,2.8,10.92h.25l2.94-10.86-.05-.14h-1.73v-2.63h8.89v2.63h-1.67l-.05.14,2.94,10.86h.25l2.77-10.89-.05-.11h-1.73v-2.63h6.8v2.63h-1.73l-4.14,14.65h-4.76Z"/>
  <path class="cls-1" d="M29.76,69.95v-2.63h1.92l.08-.11v-11.66l-.08-.11h-1.92v-2.63h7.65v2.63h-1.92l-.05.11v11.66l.05.11h1.92v2.63s-7.65,0-7.65,0Z"/>
  <path class="cls-1" d="M51.21,70.08l-6.83-13.44h-.3v10.56l.05.11h1.87v2.63h-6.83v-2.63h1.81l.05-.11v-11.66l-.05-.11h-1.81v-2.63h6.94l6.58,13h.33v-10.26l-.08-.11h-1.87v-2.63h6.86v2.63h-1.81l-.08.11v14.54h-4.83Z"/>
  <path class="cls-1" d="M59.41,69.95v-2.63h1.81l.06-.11v-11.66l-.06-.11h-1.81v-2.63h15.36v5.95h-2.63l-.82-3.35h-6.39v4.64h2.71l.33-1.95h2.39l-.47,6.28h-2.39v-1.84h-2.58v4.8h6.28l1.15-3.29h2.74l-.58,5.9h-15.12.02Z"/>
  <path class="cls-1" d="M88.24,69.95l-3.7-6.61h-2.22v3.87l.08.11h1.73v2.63h-7.32v-2.63h1.81l.05-.11v-11.66l-.05-.11h-1.81v-2.63h8.29c4.91,0,6.72,1.65,6.72,4.88,0,2.72-1.29,4.44-3.48,5.13l2.58,4.5h1.87v2.63h-4.55ZM84.73,60.76c2.2,0,3.18-.99,3.18-2.94,0-1.62-1.12-2.39-3.32-2.39h-2.28v5.32h2.42Z"/>
  <path class="cls-1" d="M97.29,69.95v-2.63h2.28l.08-.14v-3.73l-5.43-8.01h-1.56v-2.63h7.6v2.63h-1.7l-.05.14,3.1,4.94h.3l3.1-4.94-.05-.14h-1.7v-2.63h7.02v2.63h-1.56l-5.41,8.04v3.7l.06.14h2.28v2.63h-8.36Z"/>
  <circle class="cls-1" cx="35.73" cy="94.62" r="16.5"/>
  <circle class="cls-2" cx="73.45" cy="94.62" r="16.5"/>
  <circle class="cls-3" cx="54.73" cy="127.62" r="16.5"/>
</svg>